Coordinates
version=1
nRows=14
nColumns=36
inDegrees=yes

Units are S.I. units (second, meters, Newtons, ...)
If the header above contains a line with 'inDegrees', this indicates whether rotational values are in degrees (yes) or radians (no).

endheader
time	pelvis_tilt	pelvis_list	pelvis_rotation	pelvis_tx	pelvis_ty	pelvis_tz	hip_flexion_r	hip_adduction_r	hip_rotation_r	knee_angle_r	knee_angle_r_beta	ankle_angle_r	subtalar_angle_r	mtp_angle_r	hip_flexion_l	hip_adduction_l	hip_rotation_l	knee_angle_l	knee_angle_l_beta	ankle_angle_l	subtalar_angle_l	mtp_angle_l	lumbar_extension	lumbar_bending	lumbar_rotation	arm_flex_r	arm_add_r	arm_rot_r	elbow_flex_r	pro_sup_r	arm_flex_l	arm_add_l	arm_rot_l	elbow_flex_l	pro_sup_l
      3.30000000	    -13.21868117	      2.97099573	    -11.50700702	      1.02875121	      0.90186339	      0.05035638	     14.75588798	     -6.68713942	     -7.23265041	      6.62384430	      0.11560789	      6.30093801	     -6.68361651	     -7.49999987	     12.05195033	    -12.43597140	     -2.70106400	      3.35192991	      0.05850221	      5.68988032	      4.38923330	     -7.49999987	      4.25468393	      2.67258335	     -5.08738050	     90.58112629	      4.46547505	     68.58160721	    122.92892338	     85.48610928	     85.93808265	      9.70602134	     62.25758320	    149.07156307	     80.78923508
      3.31666670	    -13.18998838	      3.08280022	    -11.35083109	      1.02881071	      0.90188560	      0.04989935	     14.12834647	     -6.75467654	     -6.61393881	      5.76602967	      0.10063620	      6.13087164	     -7.28816170	     -7.49999987	     11.83126293	    -12.17586818	     -2.07521123	      3.08108856	      0.05377514	      6.07682843	      4.04361709	     -7.49999987	      4.06398859	      2.86290927	     -6.50096165	     91.76858174	      5.94910652	     69.67680402	    121.07727056	     82.72453241	     86.95146328	      8.12938055	     62.76114390	    148.84041224	     78.90021158
      3.33333330	    -13.22115654	      3.18991606	    -11.24744074	      1.02806476	      0.89863601	      0.04912080	     13.83993432	     -6.83171482	     -6.04809352	      5.29597346	      0.09243217	      5.97398811	     -8.02167336	     -7.49999987	     11.86657038	    -11.95858623	     -1.56213827	      3.10891268	      0.05426076	      6.49705084	      3.64913530	     -7.49999987	      3.98753532	      3.00301897	     -7.62141316	     93.11646019	      7.51722406	     69.87450468	    119.76109978	     81.42632454	     88.09022691	      6.87406520	     62.23710986	    148.55209107	     78.06029568
      3.35000000	    -13.18384849	      3.27786652	    -11.25842944	      1.02842416	      0.90201395	      0.04946303	     13.55468662	     -6.86671785	     -5.31157407	      4.89737133	      0.08547525	      5.86152681	     -8.70311829	     -7.49999987	     11.81191597	    -11.78399952	     -1.35421138	      3.14641357	      0.05491528	      6.89465962	      3.63970936	     -7.49999987	      3.94195541	      3.02730130	     -8.69913932	     93.49255619	      8.49858615	     70.63133986	    118.96057147	     81.93601090	     88.36948101	      5.54439452	     62.66082987	    148.22595112	     80.16848826
      3.36666670	    -12.95957930	      3.36391478	    -11.30716222	      1.03779667	      0.90265885	      0.05001614	     12.86933693	     -6.95078065	     -4.94137203	      4.32998729	      0.07557253	      5.82906735	     -8.83441203	     -7.49999987	     11.21597599	    -11.53622374	     -1.14609090	      2.84759168	      0.04969985	      6.89081845	      3.47202518	     -7.49999987	      4.16698900	      2.87938800	     -9.33184910	     92.78363125	      8.97003479	     71.56804580	    119.14971022	     81.99333156	     87.59314395	      5.06567324	     63.33797726	    147.89149117	     80.24024403
      3.38333330	    -12.73680965	      3.33970295	    -11.33697598	      1.03783867	      0.90309352	      0.04990214	     12.12862548	     -6.91412462	     -4.61162965	      3.62697184	      0.06330260	      5.58300370	     -9.27060416	     -7.49999987	     10.67615852	    -11.42673971	     -0.72809330	      2.60166518	      0.04540762	      6.83089840	      3.12458014	     -7.49999987	      4.42732668	      2.78165678	     -9.51313914	     92.35389988	      8.73067480	     72.41072831	    119.38999563	     79.62219180	     87.22222677	      4.94167969	     64.87386163	    147.99746836	     78.23325713
      3.40000000	    -12.65709001	      3.34971572	    -11.38571544	      1.03719297	      0.90304025	      0.04981151	     11.67417185	     -6.87952670	     -4.02542494	      3.09067035	      0.05394237	      5.26608423	    -10.13505982	     -7.49999987	     10.43991185	    -11.33250435	     -0.63330141	      2.51685170	      0.04392735	      6.85061436	      2.99689989	     -7.49999987	      4.57324341	      2.73628430	     -9.67081531	     92.09993929	      8.58583253	     72.88798166	    119.42431687	     79.92579865	     86.92457244	      4.75146892	     65.38182877	    147.84580267	     78.86217204
      3.41666670	    -12.67520641	      3.34920910	    -11.41482177	      1.04237190	      0.90056337	      0.05358429	     11.36645436	     -6.81265692	     -3.98158518	      2.66639633	      0.04653740	      5.43651858	    -10.23505618	     -7.49999987	     10.25196927	    -11.28909007	     -0.54542006	      2.40582129	      0.04198950	      6.91280354	      2.88182638	     -7.49999987	      5.06355345	      2.54397140	     -9.54280695	     92.09354740	      8.64931276	     72.72764653	    119.44374315	     79.93663131	     86.85623140	      4.94522997	     65.35453383	    148.01499848	     78.88961311
      3.43333330	    -12.53679630	      3.27835653	    -11.41604454	      1.04182059	      0.89781012	      0.05375972	     10.82127626	     -6.68911840	     -3.54759572	      2.11352487	      0.03688797	      4.97473314	    -11.05436937	     -7.49999987	      9.95627529	    -11.32125496	     -0.23256161	      2.30970296	      0.04031192	      6.83054689	      2.52646253	     -7.49999987	      5.12586093	      2.37510828	     -9.32754573	     92.11302581	      8.64449763	     71.95134370	    119.65935416	     77.02155356	     86.98644648	      5.90229324	     64.46898861	    148.22105621	     76.05428576
      3.45000000	    -12.51106872	      3.24882162	    -11.36910873	      1.04221718	      0.90130689	      0.05324525	     10.49743819	     -6.63796059	     -3.24539945	      1.73676036	      0.03031219	      4.91704416	    -11.45413141	     -7.49999987	      9.83211235	    -11.29270301	      0.27096262	      2.19672838	      0.03834014	      6.70695954	      1.85893510	     -7.49999987	      5.27352632	      2.19906417	     -9.04871588	     91.48786794	      8.55977135	     70.85549990	    119.73955417	     82.32523486	     86.68988046	      6.43615392	     64.87468722	    148.36981669	     81.35559901
      3.46666670	    -12.44652617	      3.16032532	    -11.24765669	      1.04687726	      0.90148100	      0.05739285	      9.99000661	     -6.49433485	     -3.16712485	      1.29123017	      0.02253622	      4.89443570	    -11.57639357	     -7.49999987	      9.54331656	    -11.33162608	      0.46613563	      1.96048233	      0.03421687	      6.58600893	      1.69373807	     -7.49999987	      5.55473665	      2.01452579	     -8.71202932	     91.21443536	      8.75050898	     70.49668367	    119.54890675	     82.27035541	     86.05869013	      7.01349199	     65.22237145	    148.52007520	     81.38636132
      3.48333330	    -12.36361747	      3.03662540	    -11.23970903	      1.05213741	      0.90194747	      0.06144380	      9.47987640	     -6.25803715	     -2.91774805	      0.90253568	      0.01575222	      4.85504309	    -11.74700026	     -7.49999987	      9.09463525	    -11.45075485	      0.74869312	      1.61879519	      0.02825331	      6.35383916	      1.39151435	     -7.49999987	      6.07875490	      1.78590288	     -8.14400331	     90.46045425	      8.65314458	     69.91696047	    119.54017424	     82.20320412	     85.01904595	      7.42865090	     65.60443183	    148.61082192	     81.42394137
      3.50000000	    -12.54496511	      3.00733614	    -11.18301594	      1.04627259	      0.90121242	      0.05673220	      9.51720368	     -6.15475527	     -2.68117206	      0.77646121	      0.01355180	      4.82980083	    -12.05741706	     -7.49999987	      9.19111552	    -11.51058703	      1.08411560	      1.53799540	      0.02684308	      6.28002801	      0.99030500	     -7.49999987	      6.22096900	      1.74280448	     -7.92006870	     90.28139028	      8.49858104	     69.71928126	    119.66088796	     82.19478289	     84.91457739	      7.75365163	     66.08709793	    148.52457997	     81.46809525
      3.51666670	    -12.63345587	      2.95241600	    -11.09497978	      1.04670806	      0.90121668	      0.05660258	      9.47896899	     -6.04362904	     -2.42789149	      0.69106781	      0.01206141	      4.81083039	    -12.44204873	     -7.49999987	      9.26476802	    -11.56319524	      1.49775326	      1.52475172	      0.02661194	      6.14868106	      0.47755690	     -7.49999987	      6.30561501	      1.69811748	     -7.96168272	     90.22387350	      8.18073059	     69.88159284	    119.90615458	     81.54287290	     84.81453123	      7.74478220	     66.45888610	    148.45839902	     79.77822043
